<?xml version="1.0" encoding="UTF-8"?>
<!DOCTYPE svg PUBLIC "-//W3C//DTD SVG 1.1//EN" "http://www.w3.org/Graphics/SVG/1.1/DTD/svg11.dtd">
<svg version="1.1" xmlns="http://www.w3.org/2000/svg" xmlns:xlink="http://www.w3.org/1999/xlink" x="0" y="0" width="1689.449" height="824.882" viewBox="0, 0, 1689.449, 824.882">
  <g id="Final_trace">
    <path d="M28.846,405.854 L312.311,122.39" fill-opacity="0" stroke="#0000FF" stroke-width="0.1"/>
    <path d="M28.846,405.854 L28.846,420.028" fill-opacity="0" stroke="#0000FF" stroke-width="0.1"/>
    <path d="M28.846,420.028 L312.311,703.492" fill-opacity="0" stroke="#0000FF" stroke-width="0.1"/>
    <path d="M312.311,703.492 L699.885,807.317" fill-opacity="0" stroke="#0000FF" stroke-width="0.1"/>
    <path d="M699.885,807.317 L709.881,762.268" fill-opacity="0" stroke="#0000FF" stroke-width="0.1"/>
    <path d="M709.881,762.268 L626.808,467.526" fill-opacity="0" stroke="#0000FF" stroke-width="0.1"/>
    <path d="M626.808,467.526 L596.148,420.028" fill-opacity="0" stroke="#0000FF" stroke-width="0.1"/>
    <path d="M596.148,420.028 L879.24,703.473" fill-opacity="0" stroke="#0000FF" stroke-width="0.1"/>
    <path d="M879.24,703.473 L1266.814,807.298" fill-opacity="0" stroke="#0000FF" stroke-width="0.1"/>
    <path d="M1266.814,807.298 L1276.81,762.249" fill-opacity="0" stroke="#0000FF" stroke-width="0.1"/>
    <path d="M1276.81,762.249 L1193.737,467.506" fill-opacity="0" stroke="#0000FF" stroke-width="0.1"/>
    <path d="M1193.738,467.506 L1162.705,420.008" fill-opacity="0" stroke="#0000FF" stroke-width="0.1"/>
    <path d="M1162.705,405.835 L1197.745,354.637" fill-opacity="0" stroke="#0000FF" stroke-width="0.1"/>
    <path d="M1197.745,354.637 L1276.091,54.339" fill-opacity="0" stroke="#0000FF" stroke-width="0.1"/>
    <path d="M1276.091,54.339 L1266.511,18.564" fill-opacity="0" stroke="#0000FF" stroke-width="0.1"/>
    <path d="M1266.511,18.564 L879.24,122.37" fill-opacity="0" stroke="#0000FF" stroke-width="0.1"/>
    <path d="M879.24,122.37 L595.776,405.835" fill-opacity="0" stroke="#0000FF" stroke-width="0.1"/>
    <path d="M595.776,405.854 L630.816,354.656" fill-opacity="0" stroke="#0000FF" stroke-width="0.1"/>
    <path d="M630.816,354.656 L709.161,54.358" fill-opacity="0" stroke="#0000FF" stroke-width="0.1"/>
    <path d="M709.161,54.358 L699.582,18.583" fill-opacity="0" stroke="#0000FF" stroke-width="0.1"/>
    <path d="M699.581,18.583 L312.311,122.39" fill-opacity="0" stroke="#0000FF" stroke-width="0.1"/>
    <path d="M312.172,161.935 L285.167,188.409" fill-opacity="0" stroke="#0000FF" stroke-width="0.1"/>
    <path d="M285.167,188.409 L264.689,340.97" fill-opacity="0" stroke="#0000FF" stroke-width="0.1"/>
    <path d="M264.689,340.97 L298.8,402.235" fill-opacity="0" stroke="#0000FF" stroke-width="0.1"/>
    <path d="M298.801,402.235 L365.445,390.79" fill-opacity="0" stroke="#0000FF" stroke-width="0.1"/>
    <path d="M365.445,390.79 L451.755,301.709" fill-opacity="0" stroke="#0000FF" stroke-width="0.1"/>
    <path d="M451.755,301.709 L312.172,161.935" fill-opacity="0" stroke="#0000FF" stroke-width="0.1"/>
    <path d="M460.263,310.131 L385.263,387.345" fill-opacity="0" stroke="#0000FF" stroke-width="0.1"/>
    <path d="M385.263,387.345 L516.402,363.335" fill-opacity="0" stroke="#0000FF" stroke-width="0.1"/>
    <path d="M516.402,363.335 L460.263,310.131" fill-opacity="0" stroke="#0000FF" stroke-width="0.1"/>
    <path d="M563.273,412.845 L424.909,551.401" fill-opacity="0" stroke="#0000FF" stroke-width="0.1"/>
    <path d="M424.909,551.401 L361.28,519.035" fill-opacity="0" stroke="#0000FF" stroke-width="0.1"/>
    <path d="M361.28,519.035 L323.999,450.899" fill-opacity="0" stroke="#0000FF" stroke-width="0.1"/>
    <path d="M323.999,450.899 L370.465,402.188" fill-opacity="0" stroke="#0000FF" stroke-width="0.1"/>
    <path d="M370.465,402.188 L524.35,374.678" fill-opacity="0" stroke="#0000FF" stroke-width="0.1"/>
    <path d="M524.35,374.678 L563.273,412.845" fill-opacity="0" stroke="#0000FF" stroke-width="0.1"/>
    <path d="M312.172,161.935 L285.167,188.409" fill-opacity="0" stroke="#0000FF" stroke-width="0.1"/>
    <path d="M259.51,351.996 L293.036,411.436" fill-opacity="0" stroke="#0000FF" stroke-width="0.1"/>
    <path d="M293.036,411.436 L360.5,401.261" fill-opacity="0" stroke="#0000FF" stroke-width="0.1"/>
    <path d="M360.5,401.261 L314.25,450.901" fill-opacity="0" stroke="#0000FF" stroke-width="0.1"/>
    <path d="M314.25,450.901 L345.322,511.631" fill-opacity="0" stroke="#0000FF" stroke-width="0.1"/>
    <path d="M345.322,511.631 L281.131,481.328" fill-opacity="0" stroke="#0000FF" stroke-width="0.1"/>
    <path d="M281.131,481.328 L234.952,530.578" fill-opacity="0" stroke="#0000FF" stroke-width="0.1"/>
    <path d="M234.952,530.578 L242.816,463.163" fill-opacity="0" stroke="#0000FF" stroke-width="0.1"/>
    <path d="M242.816,463.163 L181.917,431.918" fill-opacity="0" stroke="#0000FF" stroke-width="0.1"/>
    <path d="M181.917,431.918 L248.887,419.015" fill-opacity="0" stroke="#0000FF" stroke-width="0.1"/>
    <path d="M248.887,419.015 L259.51,351.996" fill-opacity="0" stroke="#0000FF" stroke-width="0.1"/>
    <path d="M218.602,255.784 L269.046,205.34" fill-opacity="0" stroke="#0000FF" stroke-width="0.1"/>
    <path d="M269.046,205.34 L254.987,328.662" fill-opacity="0" stroke="#0000FF" stroke-width="0.1"/>
    <path d="M254.987,328.662 L218.602,255.784" fill-opacity="0" stroke="#0000FF" stroke-width="0.1"/>
    <path d="M208.606,265.78 L250.352,342.192" fill-opacity="0" stroke="#0000FF" stroke-width="0.1"/>
    <path d="M250.352,342.192 L241.473,412.484" fill-opacity="0" stroke="#0000FF" stroke-width="0.1"/>
    <path d="M241.473,412.484 L176.409,425.198" fill-opacity="0" stroke="#0000FF" stroke-width="0.1"/>
    <path d="M176.409,425.198 L91.649,382.784" fill-opacity="0" stroke="#0000FF" stroke-width="0.1"/>
    <path d="M91.648,382.784 L208.606,265.779" fill-opacity="0" stroke="#0000FF" stroke-width="0.1"/>
    <path d="M28.846,405.854 L28.846,420.028" fill-opacity="0" stroke="#0000FF" stroke-width="0.1"/>
    <path d="M82.493,391.893 L57.193,414.019" fill-opacity="0" stroke="#0000FF" stroke-width="0.1"/>
    <path d="M57.193,414.019 L88.946,440.442" fill-opacity="0" stroke="#0000FF" stroke-width="0.1"/>
    <path d="M88.946,440.442 L163.668,429.641" fill-opacity="0" stroke="#0000FF" stroke-width="0.1"/>
    <path d="M163.668,429.641 L82.493,391.893" fill-opacity="0" stroke="#0000FF" stroke-width="0.1"/>
    <path d="M98.616,450.206 L170.579,437.324" fill-opacity="0" stroke="#0000FF" stroke-width="0.1"/>
    <path d="M170.579,437.324 L234.541,467.526" fill-opacity="0" stroke="#0000FF" stroke-width="0.1"/>
    <path d="M234.541,467.526 L225.008,536.477" fill-opacity="0" stroke="#0000FF" stroke-width="0.1"/>
    <path d="M225.008,536.477 L205.554,557.21" fill-opacity="0" stroke="#0000FF" stroke-width="0.1"/>
    <path d="M205.554,557.21 L98.616,450.206" fill-opacity="0" stroke="#0000FF" stroke-width="0.1"/>
    <path d="M212.393,564.142 L226.444,548.873" fill-opacity="0" stroke="#0000FF" stroke-width="0.1"/>
    <path d="M226.444,548.873 L221.292,573.041" fill-opacity="0" stroke="#0000FF" stroke-width="0.1"/>
    <path d="M221.292,573.041 L212.393,564.142" fill-opacity="0" stroke="#0000FF" stroke-width="0.1"/>
    <path d="M237.566,543.035 L230.659,582.409" fill-opacity="0" stroke="#0000FF" stroke-width="0.1"/>
    <path d="M237.566,543.035 L284.032,494.223" fill-opacity="0" stroke="#0000FF" stroke-width="0.1"/>
    <path d="M284.032,494.223 L347.016,522.639" fill-opacity="0" stroke="#0000FF" stroke-width="0.1"/>
    <path d="M347.016,522.639 L384.254,591.809" fill-opacity="0" stroke="#0000FF" stroke-width="0.1"/>
    <path d="M384.254,591.809 L312.666,664.162" fill-opacity="0" stroke="#0000FF" stroke-width="0.1"/>
    <path d="M312.666,664.162 L230.659,582.409" fill-opacity="0" stroke="#0000FF" stroke-width="0.1"/>
    <path d="M365.148,533.747 L392.072,582.674" fill-opacity="0" stroke="#0000FF" stroke-width="0.1"/>
    <path d="M392.072,582.674 L416.103,559.795" fill-opacity="0" stroke="#0000FF" stroke-width="0.1"/>
    <path d="M416.103,559.795 L365.148,533.747" fill-opacity="0" stroke="#0000FF" stroke-width="0.1"/>
    <path d="M363.074,133.908 L511.331,94.402" fill-opacity="0" stroke="#0000FF" stroke-width="0.1"/>
    <path d="M511.331,94.401 L462.995,233.767" fill-opacity="0" stroke="#0000FF" stroke-width="0.1"/>
    <path d="M462.995,233.767 L363.074,133.908" fill-opacity="0" stroke="#0000FF" stroke-width="0.1"/>
    <path d="M527.875,89.051 L664.957,52.987" fill-opacity="0" stroke="#0000FF" stroke-width="0.1"/>
    <path d="M664.957,52.987 L630.816,181.225" fill-opacity="0" stroke="#0000FF" stroke-width="0.1"/>
    <path d="M630.816,181.225 L527.875,89.051" fill-opacity="0" stroke="#0000FF" stroke-width="0.1"/>
    <path d="M520.524,91.652 L468.404,240.478" fill-opacity="0" stroke="#0000FF" stroke-width="0.1"/>
    <path d="M468.404,240.478 L628,188" fill-opacity="0" stroke="#0000FF" stroke-width="0.1"/>
    <path d="M628,188 L520.524,91.652" fill-opacity="0" stroke="#0000FF" stroke-width="0.1"/>
    <path d="M475.13,247.474 L626.808,195.407" fill-opacity="0" stroke="#0000FF" stroke-width="0.1"/>
    <path d="M626.808,195.407 L584.294,354.656" fill-opacity="0" stroke="#0000FF" stroke-width="0.1"/>
    <path d="M584.294,354.656 L475.129,247.474" fill-opacity="0" stroke="#0000FF" stroke-width="0.1"/>
    <path d="M583.364,467.135 L617.916,595.263" fill-opacity="0" stroke="#0000FF" stroke-width="0.1"/>
    <path d="M617.916,595.263 L482.68,566.908" fill-opacity="0" stroke="#0000FF" stroke-width="0.1"/>
    <path d="M482.68,566.908 L583.364,467.135" fill-opacity="0" stroke="#0000FF" stroke-width="0.1"/>
    <path d="M471.028,579.814 L362.387,688.156" fill-opacity="0" stroke="#0000FF" stroke-width="0.1"/>
    <path d="M471.028,579.814 L498.85,724.676" fill-opacity="0" stroke="#0000FF" stroke-width="0.1"/>
    <path d="M362.387,688.156 L498.85,724.676" fill-opacity="0" stroke="#0000FF" stroke-width="0.1"/>
    <path d="M477.614,572.837 L506.89,727.783" fill-opacity="0" stroke="#0000FF" stroke-width="0.1"/>
    <path d="M477.614,572.837 L618.865,602.538" fill-opacity="0" stroke="#0000FF" stroke-width="0.1"/>
    <path d="M618.865,602.538 L506.89,727.783" fill-opacity="0" stroke="#0000FF" stroke-width="0.1"/>
    <path d="M621.537,609.549 L516.213,730.479" fill-opacity="0" stroke="#0000FF" stroke-width="0.1"/>
    <path d="M621.537,609.549 L664.343,768.719" fill-opacity="0" stroke="#0000FF" stroke-width="0.1"/>
    <path d="M516.213,730.479 L664.343,768.719" fill-opacity="0" stroke="#0000FF" stroke-width="0.1"/>
    <path d="M658.578,382.764 L775.536,265.76" fill-opacity="0" stroke="#0000FF" stroke-width="0.1"/>
    <path d="M775.535,265.76 L817.281,342.173" fill-opacity="0" stroke="#0000FF" stroke-width="0.1"/>
    <path d="M817.281,342.173 L808.402,412.465" fill-opacity="0" stroke="#0000FF" stroke-width="0.1"/>
    <path d="M808.402,412.465 L743.338,425.179" fill-opacity="0" stroke="#0000FF" stroke-width="0.1"/>
    <path d="M743.338,425.179 L658.578,382.764" fill-opacity="0" stroke="#0000FF" stroke-width="0.1"/>
    <path d="M649.422,391.874 L730.597,429.622" fill-opacity="0" stroke="#0000FF" stroke-width="0.1"/>
    <path d="M730.597,429.622 L655.875,440.422" fill-opacity="0" stroke="#0000FF" stroke-width="0.1"/>
    <path d="M655.875,440.422 L627.592,413.703" fill-opacity="0" stroke="#0000FF" stroke-width="0.1"/>
    <path d="M627.592,413.703 L649.422,391.874" fill-opacity="0" stroke="#0000FF" stroke-width="0.1"/>
    <path d="M785.531,255.765 L835.975,205.321" fill-opacity="0" stroke="#0000FF" stroke-width="0.1"/>
    <path d="M835.975,205.321 L821.916,328.643" fill-opacity="0" stroke="#0000FF" stroke-width="0.1"/>
    <path d="M821.916,328.643 L785.531,255.765" fill-opacity="0" stroke="#0000FF" stroke-width="0.1"/>
    <path d="M852.096,188.39 L879.101,161.916" fill-opacity="0" stroke="#0000FF" stroke-width="0.1"/>
    <path d="M879.101,161.916 L1018.684,301.69" fill-opacity="0" stroke="#0000FF" stroke-width="0.1"/>
    <path d="M1018.684,301.69 L932.374,390.771" fill-opacity="0" stroke="#0000FF" stroke-width="0.1"/>
    <path d="M932.374,390.771 L865.73,402.216" fill-opacity="0" stroke="#0000FF" stroke-width="0.1"/>
    <path d="M865.73,402.216 L831.618,340.951" fill-opacity="0" stroke="#0000FF" stroke-width="0.1"/>
    <path d="M831.618,340.95 L852.096,188.39" fill-opacity="0" stroke="#0000FF" stroke-width="0.1"/>
    <path d="M952.192,387.326 L1027.192,310.112" fill-opacity="0" stroke="#0000FF" stroke-width="0.1"/>
    <path d="M1027.192,310.112 L1083.331,363.315" fill-opacity="0" stroke="#0000FF" stroke-width="0.1"/>
    <path d="M1083.331,363.315 L952.192,387.326" fill-opacity="0" stroke="#0000FF" stroke-width="0.1"/>
    <path d="M881.179,450.881 L927.429,401.242" fill-opacity="0" stroke="#0000FF" stroke-width="0.1"/>
    <path d="M859.965,411.417 L927.429,401.242" fill-opacity="0" stroke="#0000FF" stroke-width="0.1"/>
    <path d="M826.439,351.977 L859.965,411.417" fill-opacity="0" stroke="#0000FF" stroke-width="0.1"/>
    <path d="M826.439,351.977 L815.817,418.996" fill-opacity="0" stroke="#0000FF" stroke-width="0.1"/>
    <path d="M748.846,431.899 L815.817,418.996" fill-opacity="0" stroke="#0000FF" stroke-width="0.1"/>
    <path d="M748.846,431.899 L809.746,463.144" fill-opacity="0" stroke="#0000FF" stroke-width="0.1"/>
    <path d="M809.746,463.144 L801.881,530.559" fill-opacity="0" stroke="#0000FF" stroke-width="0.1"/>
    <path d="M801.881,530.559 L850.142,482.85" fill-opacity="0" stroke="#0000FF" stroke-width="0.1"/>
    <path d="M850.142,482.85 L912.252,511.612" fill-opacity="0" stroke="#0000FF" stroke-width="0.1"/>
    <path d="M881.179,450.881 L912.252,511.612" fill-opacity="0" stroke="#0000FF" stroke-width="0.1"/>
    <path d="M937.394,402.169 L890.929,450.879" fill-opacity="0" stroke="#0000FF" stroke-width="0.1"/>
    <path d="M937.394,402.169 L1089.004,374.673" fill-opacity="0" stroke="#0000FF" stroke-width="0.1"/>
    <path d="M1089.004,374.673 L1130.202,412.826" fill-opacity="0" stroke="#0000FF" stroke-width="0.1"/>
    <path d="M1130.202,412.826 L991.838,551.381" fill-opacity="0" stroke="#0000FF" stroke-width="0.1"/>
    <path d="M928.209,519.015 L991.838,551.381" fill-opacity="0" stroke="#0000FF" stroke-width="0.1"/>
    <path d="M890.929,450.879 L928.209,519.015" fill-opacity="0" stroke="#0000FF" stroke-width="0.1"/>
    <path d="M801.471,467.506 L791.937,536.458" fill-opacity="0" stroke="#0000FF" stroke-width="0.1"/>
    <path d="M742.151,437.324 L800.523,467.017" fill-opacity="0" stroke="#0000FF" stroke-width="0.1"/>
    <path d="M665.545,450.186 L772.484,557.191" fill-opacity="0" stroke="#0000FF" stroke-width="0.1"/>
    <path d="M665.545,450.186 L742.151,437.324" fill-opacity="0" stroke="#0000FF" stroke-width="0.1"/>
    <path d="M772.484,557.191 L791.937,536.458" fill-opacity="0" stroke="#0000FF" stroke-width="0.1"/>
    <path d="M780.028,561.76 L793.373,548.854" fill-opacity="0" stroke="#0000FF" stroke-width="0.1"/>
    <path d="M793.373,548.854 L788.221,573.022" fill-opacity="0" stroke="#0000FF" stroke-width="0.1"/>
    <path d="M777.193,561.76 L788.221,573.022" fill-opacity="0" stroke="#0000FF" stroke-width="0.1"/>
    <path d="M804.495,543.016 L797.589,582.389" fill-opacity="0" stroke="#0000FF" stroke-width="0.1"/>
    <path d="M804.495,543.016 L852.161,493.236" fill-opacity="0" stroke="#0000FF" stroke-width="0.1"/>
    <path d="M852.161,493.236 L913.945,522.62" fill-opacity="0" stroke="#0000FF" stroke-width="0.1"/>
    <path d="M913.945,522.62 L951.183,591.789" fill-opacity="0" stroke="#0000FF" stroke-width="0.1"/>
    <path d="M951.183,591.789 L879.595,664.142" fill-opacity="0" stroke="#0000FF" stroke-width="0.1"/>
    <path d="M879.595,664.142 L797.589,582.389" fill-opacity="0" stroke="#0000FF" stroke-width="0.1"/>
    <path d="M933.098,536.248 L959.002,582.654" fill-opacity="0" stroke="#0000FF" stroke-width="0.1"/>
    <path d="M959.002,582.654 L983.032,559.776" fill-opacity="0" stroke="#0000FF" stroke-width="0.1"/>
    <path d="M933.098,536.248 L983.032,559.776" fill-opacity="0" stroke="#0000FF" stroke-width="0.1"/>
    <path d="M1094.804,89.031 L1197.745,181.206" fill-opacity="0" stroke="#0000FF" stroke-width="0.1"/>
    <path d="M1094.804,89.031 L1230.736,54.358" fill-opacity="0" stroke="#0000FF" stroke-width="0.1"/>
    <path d="M1230.736,54.358 L1197.745,181.206" fill-opacity="0" stroke="#0000FF" stroke-width="0.1"/>
    <path d="M1087.453,91.633 L1035.334,240.459" fill-opacity="0" stroke="#0000FF" stroke-width="0.1"/>
    <path d="M1087.453,91.633 L1194.929,187.981" fill-opacity="0" stroke="#0000FF" stroke-width="0.1"/>
    <path d="M1035.334,240.459 L1194.929,187.981" fill-opacity="0" stroke="#0000FF" stroke-width="0.1"/>
    <path d="M1042.059,247.455 L1193.737,195.388" fill-opacity="0" stroke="#0000FF" stroke-width="0.1"/>
    <path d="M1193.737,195.388 L1151.223,354.637" fill-opacity="0" stroke="#0000FF" stroke-width="0.1"/>
    <path d="M1042.059,247.455 L1151.223,354.637" fill-opacity="0" stroke="#0000FF" stroke-width="0.1"/>
    <path d="M1078.26,94.382 L1029.924,233.747" fill-opacity="0" stroke="#0000FF" stroke-width="0.1"/>
    <path d="M930.003,133.889 L1078.26,94.382" fill-opacity="0" stroke="#0000FF" stroke-width="0.1"/>
    <path d="M930.003,133.889 L1029.924,233.747" fill-opacity="0" stroke="#0000FF" stroke-width="0.1"/>
    <path d="M1044.543,572.817 L1073.82,727.763" fill-opacity="0" stroke="#0000FF" stroke-width="0.1"/>
    <path d="M1044.543,572.817 L1185.795,602.519" fill-opacity="0" stroke="#0000FF" stroke-width="0.1"/>
    <path d="M1073.82,727.763 L1185.795,602.519" fill-opacity="0" stroke="#0000FF" stroke-width="0.1"/>
    <path d="M1150.293,467.115 L1049.609,566.889" fill-opacity="0" stroke="#0000FF" stroke-width="0.1"/>
    <path d="M1150.293,467.115 L1184.845,595.243" fill-opacity="0" stroke="#0000FF" stroke-width="0.1"/>
    <path d="M1049.609,566.889 L1184.845,595.243" fill-opacity="0" stroke="#0000FF" stroke-width="0.1"/>
    <path d="M1188.466,609.529 L1083.142,730.46" fill-opacity="0" stroke="#0000FF" stroke-width="0.1"/>
    <path d="M1188.466,609.529 L1231.161,767.877" fill-opacity="0" stroke="#0000FF" stroke-width="0.1"/>
    <path d="M1083.142,730.46 L1231.272,768.7" fill-opacity="0" stroke="#0000FF" stroke-width="0.1"/>
    <path d="M1065.779,724.656 L1037.957,579.794" fill-opacity="0" stroke="#0000FF" stroke-width="0.1"/>
    <path d="M1037.957,579.794 L929.316,688.137" fill-opacity="0" stroke="#0000FF" stroke-width="0.1"/>
    <path d="M929.316,688.137 L1065.779,724.656" fill-opacity="0" stroke="#0000FF" stroke-width="0.1"/>
    <path d="M312.311,122.39 L595.776,405.854" fill-opacity="0" stroke="#FF0000" stroke-width="0.1"/>
    <path d="M595.776,405.854 L699.582,18.583" fill-opacity="0" stroke="#FF0000" stroke-width="0.1"/>
    <path d="M595.776,405.854 L595.776,420.008" fill-opacity="0" stroke="#FF0000" stroke-width="0.1"/>
    <path d="M595.776,420.008 L312.666,703.562" fill-opacity="0" stroke="#FF0000" stroke-width="0.1"/>
    <path d="M595.776,420.008 L699.885,807.317" fill-opacity="0" stroke="#FF0000" stroke-width="0.1"/>
    <path d="M879.24,122.37 L1162.705,405.835" fill-opacity="0" stroke="#FF0000" stroke-width="0.1"/>
    <path d="M1162.705,405.835 L1266.511,18.564" fill-opacity="0" stroke="#FF0000" stroke-width="0.1"/>
    <path d="M1162.705,420.008 L879.24,703.473" fill-opacity="0" stroke="#FF0000" stroke-width="0.1"/>
    <path d="M1162.705,420.008 L1266.815,807.298" fill-opacity="0" stroke="#FF0000" stroke-width="0.1"/>
    <path d="M1162.705,420.008 L1162.705,405.835" fill-opacity="0" stroke="#FF0000" stroke-width="0.1"/>
    <path d="M1162.705,405.835 L1173.281,407.428" fill-opacity="0" stroke="#0000FF" stroke-width="0.1"/>
    <path d="M1173.281,407.428 L1172.474,417.211" fill-opacity="0" stroke="#0000FF" stroke-width="0.1"/>
    <path d="M1172.474,417.211 L1162.705,420.008" fill-opacity="0" stroke="#0000FF" stroke-width="0.1"/>
  </g>
</svg>
