<?xml version="1.0" encoding="UTF-8"?>
<!DOCTYPE svg PUBLIC "-//W3C//DTD SVG 1.1//EN" "http://www.w3.org/Graphics/SVG/1.1/DTD/svg11.dtd">
<svg version="1.1" xmlns="http://www.w3.org/2000/svg" xmlns:xlink="http://www.w3.org/1999/xlink" x="0" y="0" width="1689.449" height="824.882" viewBox="0, 0, 1689.449, 824.882">
  <g id="Trace">
    <path d="M46.294,113.423 L53.897,33.48" fill-opacity="0" stroke="#0000FF" stroke-width="0.1"/>
    <path d="M53.897,33.48 L432.945,33.48" fill-opacity="0" stroke="#0000FF" stroke-width="0.1"/>
    <path d="M432.945,33.48 L447.17,113.423" fill-opacity="0" stroke="#0000FF" stroke-width="0.1"/>
    <path d="M29.519,128.967 L46.294,113.423" fill-opacity="0" stroke="#0000FF" stroke-width="0.1"/>
    <path d="M29.519,128.967 L29.519,204.267" fill-opacity="0" stroke="#0000FF" stroke-width="0.1"/>
    <path d="M29.519,204.267 L63.663,236.168" fill-opacity="0" stroke="#0000FF" stroke-width="0.1"/>
    <path d="M63.663,236.168 L429.802,236.168" fill-opacity="0" stroke="#0000FF" stroke-width="0.1"/>
    <path d="M447.17,219.811 L429.802,236.168" fill-opacity="0" stroke="#0000FF" stroke-width="0.1"/>
    <path d="M447.17,219.811 L464.538,236.168" fill-opacity="0" stroke="#0000FF" stroke-width="0.1"/>
    <path d="M63.663,128.967 L63.663,204.267" fill-opacity="0" stroke="#0000FF" stroke-width="0.1"/>
    <path d="M63.663,128.967 L360.135,129.171" fill-opacity="0" stroke="#0000FF" stroke-width="0.1"/>
    <path d="M429.802,128.967 L429.802,204.267" fill-opacity="0" stroke="#0000FF" stroke-width="0.1"/>
    <path d="M179.627,204.404 L429.802,204.267" fill-opacity="0" stroke="#0000FF" stroke-width="0.1"/>
    <path d="M161.086,204.417 L178.785,204.387" fill-opacity="0" stroke="#0000FF" stroke-width="0.1"/>
    <path d="M63.663,204.267 L156.303,204.267" fill-opacity="0" stroke="#0000FF" stroke-width="0.1"/>
    <path d="M363.412,129.048 L429.802,128.967" fill-opacity="0" stroke="#0000FF" stroke-width="0.1"/>
    <path d="M363.412,129.048 L371.662,144.153" fill-opacity="0" stroke="#0000FF" stroke-width="0.1"/>
    <path d="M371.662,144.153 L393.814,140.92" fill-opacity="0" stroke="#0000FF" stroke-width="0.1"/>
    <path d="M393.814,140.92 L378.444,157.196" fill-opacity="0" stroke="#0000FF" stroke-width="0.1"/>
    <path d="M378.444,157.196 L388.365,177.265" fill-opacity="0" stroke="#0000FF" stroke-width="0.1"/>
    <path d="M368.135,167.677 L388.365,177.265" fill-opacity="0" stroke="#0000FF" stroke-width="0.1"/>
    <path d="M368.135,167.677 L352.114,183.313" fill-opacity="0" stroke="#0000FF" stroke-width="0.1"/>
    <path d="M354.982,161.111 L352.114,183.313" fill-opacity="0" stroke="#0000FF" stroke-width="0.1"/>
    <path d="M335.16,150.706 L354.982,161.111" fill-opacity="0" stroke="#0000FF" stroke-width="0.1"/>
    <path d="M335.16,150.706 L357.162,146.573" fill-opacity="0" stroke="#0000FF" stroke-width="0.1"/>
    <path d="M360.135,129.171 L357.162,146.573" fill-opacity="0" stroke="#0000FF" stroke-width="0.1"/>
    <path d="M156.941,194.853 L156.303,204.267" fill-opacity="0" stroke="#0000FF" stroke-width="0.1"/>
    <path d="M143.152,188.311 L156.802,194.807" fill-opacity="0" stroke="#0000FF" stroke-width="0.1"/>
    <path d="M143.291,188.358 L157.807,184.799" fill-opacity="0" stroke="#0000FF" stroke-width="0.1"/>
    <path d="M159.428,169.523 L157.807,184.799" fill-opacity="0" stroke="#0000FF" stroke-width="0.1"/>
    <path d="M159.428,169.523 L167.385,182.663" fill-opacity="0" stroke="#0000FF" stroke-width="0.1"/>
    <path d="M167.385,182.663 L182.038,179.717" fill-opacity="0" stroke="#0000FF" stroke-width="0.1"/>
    <path d="M182.038,179.717 L172.162,191.026" fill-opacity="0" stroke="#0000FF" stroke-width="0.1"/>
    <path d="M172.162,191.026 L179.349,204.033" fill-opacity="0" stroke="#0000FF" stroke-width="0.1"/>
    <path d="M165.985,198.931 L178.785,204.387" fill-opacity="0" stroke="#0000FF" stroke-width="0.1"/>
    <path d="M165.985,198.931 L161.086,204.417" fill-opacity="0" stroke="#0000FF" stroke-width="0.1"/>
    <path d="M453.592,33.48 L447.17,113.423" fill-opacity="0" stroke="#0000FF" stroke-width="0.1"/>
    <path d="M453.592,33.48 L830.677,33.48" fill-opacity="0" stroke="#0000FF" stroke-width="0.1"/>
    <path d="M830.677,33.48 L848.046,113.423" fill-opacity="0" stroke="#0000FF" stroke-width="0.1"/>
    <path d="M848.046,113.423 L848.046,219.811" fill-opacity="0" stroke="#0000FF" stroke-width="0.1"/>
    <path d="M848.046,219.811 L830.677,236.168" fill-opacity="0" stroke="#0000FF" stroke-width="0.1"/>
    <path d="M464.538,236.168 L830.677,236.168" fill-opacity="0" stroke="#0000FF" stroke-width="0.1"/>
    <path d="M464.538,128.967 L464.538,204.267" fill-opacity="0" stroke="#0000FF" stroke-width="0.1"/>
    <path d="M464.538,128.967 L830.677,128.967" fill-opacity="0" stroke="#0000FF" stroke-width="0.1"/>
    <path d="M830.677,128.967 L830.677,204.267" fill-opacity="0" stroke="#0000FF" stroke-width="0.1"/>
    <path d="M464.538,204.267 L830.677,204.267" fill-opacity="0" stroke="#0000FF" stroke-width="0.1"/>
    <path d="M46.294,113.423 L447.17,113.423" fill-opacity="0" stroke="#FF0000" stroke-width="0.1"/>
    <path d="M46.294,219.811 L447.17,219.811" fill-opacity="0" stroke="#FF0000" stroke-width="0.1"/>
    <path d="M46.294,113.423 L46.294,219.811" fill-opacity="0" stroke="#FF0000" stroke-width="0.1"/>
    <path d="M447.17,113.423 L447.17,219.811" fill-opacity="0" stroke="#FF0000" stroke-width="0.1"/>
    <path d="M447.17,113.423 L848.046,113.423" fill-opacity="0" stroke="#FF0000" stroke-width="0.1"/>
    <path d="M447.17,219.811 L848.046,219.811" fill-opacity="0" stroke="#FF0000" stroke-width="0.1"/>
    <path d="M47.278,315.202 L63.663,236.168" fill-opacity="0" stroke="#0000FF" stroke-width="0.1"/>
    <path d="M429.802,236.168 L448.154,315.202" fill-opacity="0" stroke="#0000FF" stroke-width="0.1"/>
    <path d="M30.503,330.746 L47.278,315.202" fill-opacity="0" stroke="#0000FF" stroke-width="0.1"/>
    <path d="M30.503,330.746 L30.503,406.046" fill-opacity="0" stroke="#0000FF" stroke-width="0.1"/>
    <path d="M30.503,406.046 L64.647,437.946" fill-opacity="0" stroke="#0000FF" stroke-width="0.1"/>
    <path d="M64.647,437.946 L430.786,437.946" fill-opacity="0" stroke="#0000FF" stroke-width="0.1"/>
    <path d="M448.154,421.59 L430.786,437.946" fill-opacity="0" stroke="#0000FF" stroke-width="0.1"/>
    <path d="M448.154,421.59 L465.522,437.946" fill-opacity="0" stroke="#0000FF" stroke-width="0.1"/>
    <path d="M64.647,330.746 L64.647,406.046" fill-opacity="0" stroke="#0000FF" stroke-width="0.1"/>
    <path d="M64.647,330.746 L361.119,330.949" fill-opacity="0" stroke="#0000FF" stroke-width="0.1"/>
    <path d="M430.786,330.746 L430.786,406.046" fill-opacity="0" stroke="#0000FF" stroke-width="0.1"/>
    <path d="M180.611,406.183 L430.786,406.046" fill-opacity="0" stroke="#0000FF" stroke-width="0.1"/>
    <path d="M162.07,406.195 L179.769,406.166" fill-opacity="0" stroke="#0000FF" stroke-width="0.1"/>
    <path d="M64.647,406.046 L157.287,406.046" fill-opacity="0" stroke="#0000FF" stroke-width="0.1"/>
    <path d="M364.396,330.826 L430.786,330.746" fill-opacity="0" stroke="#0000FF" stroke-width="0.1"/>
    <path d="M364.396,330.826 L372.646,345.932" fill-opacity="0" stroke="#0000FF" stroke-width="0.1"/>
    <path d="M372.646,345.932 L394.798,342.698" fill-opacity="0" stroke="#0000FF" stroke-width="0.1"/>
    <path d="M394.798,342.698 L379.428,358.975" fill-opacity="0" stroke="#0000FF" stroke-width="0.1"/>
    <path d="M379.428,358.975 L389.349,379.044" fill-opacity="0" stroke="#0000FF" stroke-width="0.1"/>
    <path d="M369.119,369.455 L389.349,379.044" fill-opacity="0" stroke="#0000FF" stroke-width="0.1"/>
    <path d="M369.119,369.455 L353.098,385.092" fill-opacity="0" stroke="#0000FF" stroke-width="0.1"/>
    <path d="M355.966,362.89 L353.098,385.092" fill-opacity="0" stroke="#0000FF" stroke-width="0.1"/>
    <path d="M336.144,352.485 L355.966,362.89" fill-opacity="0" stroke="#0000FF" stroke-width="0.1"/>
    <path d="M336.144,352.485 L358.146,348.351" fill-opacity="0" stroke="#0000FF" stroke-width="0.1"/>
    <path d="M361.119,330.949 L358.146,348.351" fill-opacity="0" stroke="#0000FF" stroke-width="0.1"/>
    <path d="M157.925,396.632 L157.287,406.046" fill-opacity="0" stroke="#0000FF" stroke-width="0.1"/>
    <path d="M144.136,390.09 L157.786,396.585" fill-opacity="0" stroke="#0000FF" stroke-width="0.1"/>
    <path d="M144.275,390.136 L158.791,386.578" fill-opacity="0" stroke="#0000FF" stroke-width="0.1"/>
    <path d="M160.412,371.302 L158.791,386.578" fill-opacity="0" stroke="#0000FF" stroke-width="0.1"/>
    <path d="M160.412,371.302 L168.369,384.442" fill-opacity="0" stroke="#0000FF" stroke-width="0.1"/>
    <path d="M168.369,384.442 L183.022,381.496" fill-opacity="0" stroke="#0000FF" stroke-width="0.1"/>
    <path d="M183.022,381.496 L173.146,392.805" fill-opacity="0" stroke="#0000FF" stroke-width="0.1"/>
    <path d="M173.146,392.805 L180.333,405.812" fill-opacity="0" stroke="#0000FF" stroke-width="0.1"/>
    <path d="M166.969,400.709 L179.769,406.166" fill-opacity="0" stroke="#0000FF" stroke-width="0.1"/>
    <path d="M166.969,400.709 L162.07,406.195" fill-opacity="0" stroke="#0000FF" stroke-width="0.1"/>
    <path d="M464.538,236.168 L448.154,315.202" fill-opacity="0" stroke="#0000FF" stroke-width="0.1"/>
    <path d="M830.677,236.168 L849.03,315.202" fill-opacity="0" stroke="#0000FF" stroke-width="0.1"/>
    <path d="M849.03,315.202 L849.03,421.59" fill-opacity="0" stroke="#0000FF" stroke-width="0.1"/>
    <path d="M849.03,421.59 L831.661,437.946" fill-opacity="0" stroke="#0000FF" stroke-width="0.1"/>
    <path d="M465.522,437.946 L831.661,437.946" fill-opacity="0" stroke="#0000FF" stroke-width="0.1"/>
    <path d="M465.522,330.746 L465.522,406.046" fill-opacity="0" stroke="#0000FF" stroke-width="0.1"/>
    <path d="M465.522,330.746 L831.661,330.746" fill-opacity="0" stroke="#0000FF" stroke-width="0.1"/>
    <path d="M831.661,330.746 L831.661,406.046" fill-opacity="0" stroke="#0000FF" stroke-width="0.1"/>
    <path d="M465.522,406.046 L831.661,406.046" fill-opacity="0" stroke="#0000FF" stroke-width="0.1"/>
    <path d="M47.278,315.202 L448.154,315.202" fill-opacity="0" stroke="#FF0000" stroke-width="0.1"/>
    <path d="M47.278,421.59 L448.154,421.59" fill-opacity="0" stroke="#FF0000" stroke-width="0.1"/>
    <path d="M47.278,315.202 L47.278,421.59" fill-opacity="0" stroke="#FF0000" stroke-width="0.1"/>
    <path d="M448.154,315.202 L448.154,421.59" fill-opacity="0" stroke="#FF0000" stroke-width="0.1"/>
    <path d="M448.154,315.202 L849.03,315.202" fill-opacity="0" stroke="#FF0000" stroke-width="0.1"/>
    <path d="M448.154,421.59 L849.03,421.59" fill-opacity="0" stroke="#FF0000" stroke-width="0.1"/>
    <path d="M47.277,456.566 L64.647,437.946" fill-opacity="0" stroke="#0000FF" stroke-width="0.1"/>
    <path d="M430.786,437.946 L448.153,456.566" fill-opacity="0" stroke="#0000FF" stroke-width="0.1"/>
    <path d="M30.502,472.11 L47.277,456.566" fill-opacity="0" stroke="#0000FF" stroke-width="0.1"/>
    <path d="M30.502,472.11 L30.502,547.41" fill-opacity="0" stroke="#0000FF" stroke-width="0.1"/>
    <path d="M30.502,547.41 L47.277,562.953" fill-opacity="0" stroke="#0000FF" stroke-width="0.1"/>
    <path d="M64.646,472.11 L64.646,547.41" fill-opacity="0" stroke="#0000FF" stroke-width="0.1"/>
    <path d="M64.646,472.11 L361.118,472.313" fill-opacity="0" stroke="#0000FF" stroke-width="0.1"/>
    <path d="M430.785,472.11 L430.785,547.41" fill-opacity="0" stroke="#0000FF" stroke-width="0.1"/>
    <path d="M180.61,547.547 L430.785,547.41" fill-opacity="0" stroke="#0000FF" stroke-width="0.1"/>
    <path d="M162.069,547.559 L179.768,547.53" fill-opacity="0" stroke="#0000FF" stroke-width="0.1"/>
    <path d="M64.646,547.41 L157.286,547.41" fill-opacity="0" stroke="#0000FF" stroke-width="0.1"/>
    <path d="M364.396,472.19 L430.785,472.11" fill-opacity="0" stroke="#0000FF" stroke-width="0.1"/>
    <path d="M364.396,472.19 L372.645,487.296" fill-opacity="0" stroke="#0000FF" stroke-width="0.1"/>
    <path d="M372.645,487.296 L394.797,484.062" fill-opacity="0" stroke="#0000FF" stroke-width="0.1"/>
    <path d="M394.797,484.062 L379.427,500.339" fill-opacity="0" stroke="#0000FF" stroke-width="0.1"/>
    <path d="M379.427,500.339 L389.348,520.408" fill-opacity="0" stroke="#0000FF" stroke-width="0.1"/>
    <path d="M369.118,510.819 L389.348,520.408" fill-opacity="0" stroke="#0000FF" stroke-width="0.1"/>
    <path d="M369.118,510.819 L353.097,526.456" fill-opacity="0" stroke="#0000FF" stroke-width="0.1"/>
    <path d="M355.965,504.253 L353.097,526.456" fill-opacity="0" stroke="#0000FF" stroke-width="0.1"/>
    <path d="M336.143,493.849 L355.965,504.253" fill-opacity="0" stroke="#0000FF" stroke-width="0.1"/>
    <path d="M336.143,493.849 L358.145,489.715" fill-opacity="0" stroke="#0000FF" stroke-width="0.1"/>
    <path d="M361.118,472.313 L358.145,489.715" fill-opacity="0" stroke="#0000FF" stroke-width="0.1"/>
    <path d="M157.924,537.995 L157.286,547.41" fill-opacity="0" stroke="#0000FF" stroke-width="0.1"/>
    <path d="M144.135,531.454 L157.785,537.949" fill-opacity="0" stroke="#0000FF" stroke-width="0.1"/>
    <path d="M144.274,531.5 L158.79,527.942" fill-opacity="0" stroke="#0000FF" stroke-width="0.1"/>
    <path d="M160.411,512.666 L158.79,527.942" fill-opacity="0" stroke="#0000FF" stroke-width="0.1"/>
    <path d="M160.411,512.666 L168.369,525.806" fill-opacity="0" stroke="#0000FF" stroke-width="0.1"/>
    <path d="M168.369,525.806 L183.021,522.86" fill-opacity="0" stroke="#0000FF" stroke-width="0.1"/>
    <path d="M183.021,522.86 L173.145,534.168" fill-opacity="0" stroke="#0000FF" stroke-width="0.1"/>
    <path d="M173.145,534.168 L180.332,547.176" fill-opacity="0" stroke="#0000FF" stroke-width="0.1"/>
    <path d="M166.968,542.073 L179.768,547.53" fill-opacity="0" stroke="#0000FF" stroke-width="0.1"/>
    <path d="M166.968,542.073 L162.069,547.559" fill-opacity="0" stroke="#0000FF" stroke-width="0.1"/>
    <path d="M465.522,437.946 L448.153,456.566" fill-opacity="0" stroke="#0000FF" stroke-width="0.1"/>
    <path d="M831.661,437.946 L849.029,456.566" fill-opacity="0" stroke="#0000FF" stroke-width="0.1"/>
    <path d="M849.029,456.566 L849.029,562.953" fill-opacity="0" stroke="#0000FF" stroke-width="0.1"/>
    <path d="M465.521,472.11 L465.521,547.41" fill-opacity="0" stroke="#0000FF" stroke-width="0.1"/>
    <path d="M465.521,472.11 L831.66,472.11" fill-opacity="0" stroke="#0000FF" stroke-width="0.1"/>
    <path d="M831.66,472.11 L831.66,547.41" fill-opacity="0" stroke="#0000FF" stroke-width="0.1"/>
    <path d="M465.521,547.41 L831.66,547.41" fill-opacity="0" stroke="#0000FF" stroke-width="0.1"/>
    <path d="M47.277,456.566 L448.153,456.566" fill-opacity="0" stroke="#FF0000" stroke-width="0.1"/>
    <path d="M47.277,562.953 L448.153,562.953" fill-opacity="0" stroke="#0000FF" stroke-width="0.1"/>
    <path d="M47.277,456.566 L47.277,562.953" fill-opacity="0" stroke="#FF0000" stroke-width="0.1"/>
    <path d="M448.153,456.566 L448.153,562.953" fill-opacity="0" stroke="#FF0000" stroke-width="0.1"/>
    <path d="M448.153,456.566 L849.029,456.566" fill-opacity="0" stroke="#FF0000" stroke-width="0.1"/>
    <path d="M448.153,562.953 L849.029,562.953" fill-opacity="0" stroke="#0000FF" stroke-width="0.1"/>
    <path d="M46.294,581.941 L63.663,562.953" fill-opacity="0" stroke="#0000FF" stroke-width="0.1"/>
    <path d="M429.802,562.953 L447.17,581.941" fill-opacity="0" stroke="#0000FF" stroke-width="0.1"/>
    <path d="M29.519,597.485 L46.294,581.941" fill-opacity="0" stroke="#0000FF" stroke-width="0.1"/>
    <path d="M29.519,597.485 L29.519,672.785" fill-opacity="0" stroke="#0000FF" stroke-width="0.1"/>
    <path d="M29.519,672.785 L46.294,688.329" fill-opacity="0" stroke="#0000FF" stroke-width="0.1"/>
    <path d="M63.663,597.485 L63.663,672.785" fill-opacity="0" stroke="#0000FF" stroke-width="0.1"/>
    <path d="M63.663,597.485 L360.135,597.689" fill-opacity="0" stroke="#0000FF" stroke-width="0.1"/>
    <path d="M429.802,597.485 L429.802,672.785" fill-opacity="0" stroke="#0000FF" stroke-width="0.1"/>
    <path d="M179.627,672.922 L429.802,672.785" fill-opacity="0" stroke="#0000FF" stroke-width="0.1"/>
    <path d="M161.086,672.935 L178.785,672.906" fill-opacity="0" stroke="#0000FF" stroke-width="0.1"/>
    <path d="M63.663,672.785 L156.303,672.785" fill-opacity="0" stroke="#0000FF" stroke-width="0.1"/>
    <path d="M363.412,597.566 L429.802,597.485" fill-opacity="0" stroke="#0000FF" stroke-width="0.1"/>
    <path d="M363.412,597.566 L371.662,612.671" fill-opacity="0" stroke="#0000FF" stroke-width="0.1"/>
    <path d="M371.662,612.671 L393.814,609.438" fill-opacity="0" stroke="#0000FF" stroke-width="0.1"/>
    <path d="M393.814,609.438 L378.444,625.714" fill-opacity="0" stroke="#0000FF" stroke-width="0.1"/>
    <path d="M378.444,625.714 L388.365,645.783" fill-opacity="0" stroke="#0000FF" stroke-width="0.1"/>
    <path d="M368.135,636.195 L388.365,645.783" fill-opacity="0" stroke="#0000FF" stroke-width="0.1"/>
    <path d="M368.135,636.195 L352.114,651.831" fill-opacity="0" stroke="#0000FF" stroke-width="0.1"/>
    <path d="M354.982,629.629 L352.114,651.831" fill-opacity="0" stroke="#0000FF" stroke-width="0.1"/>
    <path d="M335.16,619.224 L354.982,629.629" fill-opacity="0" stroke="#0000FF" stroke-width="0.1"/>
    <path d="M335.16,619.224 L357.162,615.091" fill-opacity="0" stroke="#0000FF" stroke-width="0.1"/>
    <path d="M360.135,597.689 L357.162,615.091" fill-opacity="0" stroke="#0000FF" stroke-width="0.1"/>
    <path d="M156.941,663.371 L156.303,672.785" fill-opacity="0" stroke="#0000FF" stroke-width="0.1"/>
    <path d="M143.152,656.829 L156.802,663.325" fill-opacity="0" stroke="#0000FF" stroke-width="0.1"/>
    <path d="M143.291,656.876 L157.807,653.317" fill-opacity="0" stroke="#0000FF" stroke-width="0.1"/>
    <path d="M159.428,638.041 L157.807,653.317" fill-opacity="0" stroke="#0000FF" stroke-width="0.1"/>
    <path d="M159.428,638.041 L167.385,651.181" fill-opacity="0" stroke="#0000FF" stroke-width="0.1"/>
    <path d="M167.385,651.181 L182.038,648.235" fill-opacity="0" stroke="#0000FF" stroke-width="0.1"/>
    <path d="M182.038,648.235 L172.162,659.544" fill-opacity="0" stroke="#0000FF" stroke-width="0.1"/>
    <path d="M172.162,659.544 L179.349,672.552" fill-opacity="0" stroke="#0000FF" stroke-width="0.1"/>
    <path d="M165.985,667.449 L178.785,672.906" fill-opacity="0" stroke="#0000FF" stroke-width="0.1"/>
    <path d="M165.985,667.449 L161.086,672.935" fill-opacity="0" stroke="#0000FF" stroke-width="0.1"/>
    <path d="M464.538,562.953 L447.17,581.941" fill-opacity="0" stroke="#0000FF" stroke-width="0.1"/>
    <path d="M830.677,562.953 L848.046,581.941" fill-opacity="0" stroke="#0000FF" stroke-width="0.1"/>
    <path d="M848.046,581.941 L848.046,688.329" fill-opacity="0" stroke="#0000FF" stroke-width="0.1"/>
    <path d="M464.538,597.485 L464.538,672.785" fill-opacity="0" stroke="#0000FF" stroke-width="0.1"/>
    <path d="M464.538,597.485 L830.677,597.485" fill-opacity="0" stroke="#0000FF" stroke-width="0.1"/>
    <path d="M830.677,597.485 L830.677,672.785" fill-opacity="0" stroke="#0000FF" stroke-width="0.1"/>
    <path d="M464.538,672.785 L830.677,672.785" fill-opacity="0" stroke="#0000FF" stroke-width="0.1"/>
    <path d="M46.294,581.941 L447.17,581.941" fill-opacity="0" stroke="#FF0000" stroke-width="0.1"/>
    <path d="M46.294,688.329 L447.17,688.329" fill-opacity="0" stroke="#0000FF" stroke-width="0.1"/>
    <path d="M46.294,581.941 L46.294,688.329" fill-opacity="0" stroke="#FF0000" stroke-width="0.1"/>
    <path d="M447.17,581.941 L447.17,688.329" fill-opacity="0" stroke="#FF0000" stroke-width="0.1"/>
    <path d="M447.17,581.941 L848.046,581.941" fill-opacity="0" stroke="#FF0000" stroke-width="0.1"/>
    <path d="M447.17,688.329 L848.046,688.329" fill-opacity="0" stroke="#0000FF" stroke-width="0.1"/>
  </g>
</svg>
